<svg width="94" height="96" viewBox="0 0 94 96" fill="none" xmlns="http://www.w3.org/2000/svg">
<path d="M44.8413 80.2257L21.5353 72.3102C19.0726 71.4759 17.7578 68.7996 18.5921 66.3368C19.4263 63.8741 22.1027 62.5593 24.5587 63.3936L47.8647 71.3091C50.3274 72.1433 51.6423 74.8196 50.808 77.2757C49.9737 79.7451 47.3041 81.0666 44.8413 80.2257Z" stroke="#4D2C5E" stroke-opacity="0.1" stroke-width="3" stroke-miterlimit="10"/>
<path d="M41.7779 89.2491L18.4719 81.3336C16.0092 80.4993 14.6943 77.823 15.5286 75.3669C16.3629 72.9042 19.0392 71.5893 21.5019 72.4236L44.8079 80.3325C47.2707 81.1667 48.5855 83.843 47.7512 86.3058C46.9103 88.7685 44.2406 90.0833 41.7779 89.2491Z" stroke="#4D2C5E" stroke-opacity="0.1" stroke-width="3" stroke-miterlimit="10"/>
<path d="M21.0614 39.0531C21.0881 39.1331 21.1082 39.2066 21.1348 39.2867C21.6554 40.9485 24.7255 51.4802 23.4441 63.1666L48.4453 71.4158C54.3719 61.2645 63.1083 54.6371 64.5165 53.6093C64.5833 53.5626 64.6501 53.5159 64.7101 53.4692C65.3909 52.9819 66.0516 52.4613 66.6923 51.9074C70.4565 48.6571 73.4198 44.379 75.0883 39.32C80.0071 24.4234 71.9181 8.35885 57.0215 3.44004C42.1249 -1.47878 26.0603 6.61024 21.1415 21.5068C19.4663 26.5725 19.2995 31.7716 20.394 36.6237C20.5809 37.438 20.8012 38.2522 21.0614 39.0531Z" stroke="#4D2C5E" stroke-opacity="0.1" stroke-width="3" stroke-miterlimit="10"/>
<path d="M19.7468 81.8809C19.4665 86.8197 22.5099 91.5249 27.4354 93.1534C32.2942 94.7552 37.4666 92.8531 40.2164 88.8286L19.7468 81.8809Z" stroke="#4D2C5E" stroke-opacity="0.1" stroke-width="3" stroke-miterlimit="10"/>
<path d="M31.2726 65.616L38.7009 43.1043C39.4351 40.8884 38.227 38.4991 36.0112 37.765C33.7954 37.0308 31.4061 38.2388 30.6719 40.4547C29.9378 42.6705 31.1458 45.0598 33.3616 45.7939L42.2782 48.7372" stroke="#4D2C5E" stroke-opacity="0.1" stroke-width="3" stroke-miterlimit="10"/>
<path d="M41.0703 68.853L48.4986 46.3413C49.2327 44.1255 51.6221 42.9241 53.8379 43.6516C56.0537 44.3857 57.255 46.7751 56.5276 48.9909C55.7934 51.2067 53.4041 52.408 51.1883 51.6805L42.2716 48.7372" stroke="#4D2C5E" stroke-opacity="0.1" stroke-width="3" stroke-miterlimit="10"/>
<path d="M80.3677 47.0754L87.8961 49.5649" stroke="#4D2C5E" stroke-opacity="0.1" stroke-width="3" stroke-miterlimit="10" stroke-linecap="round"/>
<path d="M83.8179 37.5914L91.6599 36.4102" stroke="#4D2C5E" stroke-opacity="0.1" stroke-width="3" stroke-miterlimit="10" stroke-linecap="round"/>
<path d="M75.1016 55.2112L80.6945 60.8308" stroke="#4D2C5E" stroke-opacity="0.1" stroke-width="3" stroke-miterlimit="10" stroke-linecap="round"/>
<path d="M10.4424 23.9962L2.91406 21.5134" stroke="#4D2C5E" stroke-opacity="0.1" stroke-width="3" stroke-miterlimit="10" stroke-linecap="round"/>
<path d="M13.3194 14.3188L7.72656 8.69922" stroke="#4D2C5E" stroke-opacity="0.1" stroke-width="3" stroke-miterlimit="10" stroke-linecap="round"/>
<path d="M9.8354 33.667L2 34.8483" stroke="#4D2C5E" stroke-opacity="0.1" stroke-width="3" stroke-miterlimit="10" stroke-linecap="round"/>
</svg>
