<svg width="83" height="88" viewBox="0 0 83 88" fill="none" xmlns="http://www.w3.org/2000/svg">
<path d="M41.7199 62.6356C63.4137 62.6356 80.9999 54.2995 80.9999 44.0164C80.9999 33.7333 63.4137 25.3972 41.7199 25.3972C20.0262 25.3972 2.43994 33.7333 2.43994 44.0164C2.43994 54.2995 20.0262 62.6356 41.7199 62.6356Z" stroke="#4D2C5E" stroke-opacity="0.1" stroke-width="3" stroke-miterlimit="10" stroke-linecap="round" stroke-linejoin="round"/>
<path d="M57.6049 53.7216C68.8856 35.193 70.9106 15.8378 62.1279 10.4906C53.3451 5.14341 37.0804 15.8291 25.7996 34.3577C14.5189 52.8863 12.4939 72.2415 21.2767 77.5887C30.0594 82.9359 46.3241 72.2503 57.6049 53.7216Z" stroke="#4D2C5E" stroke-opacity="0.1" stroke-width="3" stroke-miterlimit="10" stroke-linecap="round" stroke-linejoin="round"/>
<path d="M62.12 77.5804C70.9028 72.2332 68.8778 52.878 57.5971 34.3494C46.3163 15.8208 30.0516 5.13514 21.2688 10.4823C12.4861 15.8295 14.5111 35.1847 25.7918 53.7134C37.0726 72.242 53.3372 82.9276 62.12 77.5804Z" stroke="#4D2C5E" stroke-opacity="0.1" stroke-width="3" stroke-miterlimit="10" stroke-linecap="round" stroke-linejoin="round"/>
<path d="M41.7198 48.945C44.4419 48.945 46.6486 46.7383 46.6486 44.0162C46.6486 41.2941 44.4419 39.0874 41.7198 39.0874C38.9977 39.0874 36.791 41.2941 36.791 44.0162C36.791 46.7383 38.9977 48.945 41.7198 48.945Z" stroke="#4D2C5E" stroke-opacity="0.1" stroke-width="3" stroke-miterlimit="10" stroke-linecap="round" stroke-linejoin="round"/>
</svg>
