<svg width="79" height="78" viewBox="0 0 79 78" fill="none" xmlns="http://www.w3.org/2000/svg">
<path d="M10.6872 21.6882C10.6872 24.361 8.51635 26.5319 5.84363 26.5319C3.1709 26.5319 1 24.361 1 21.6882C1 19.0155 3.1709 16.8446 5.84363 16.8446C8.51635 16.8446 10.6872 19.0099 10.6872 21.6882Z" stroke="#4D2C5E" stroke-opacity="0.1" stroke-width="2" stroke-miterlimit="10" stroke-linecap="round" stroke-linejoin="round"/>
<path d="M57.6801 63.6963C60.3551 63.6963 62.5237 61.5278 62.5237 58.8527C62.5237 56.1777 60.3551 54.0091 57.6801 54.0091C55.005 54.0091 52.8364 56.1777 52.8364 58.8527C52.8364 61.5278 55.005 63.6963 57.6801 63.6963Z" stroke="#4D2C5E" stroke-opacity="0.1" stroke-width="2" stroke-miterlimit="10" stroke-linecap="round" stroke-linejoin="round"/>
<path d="M39.4443 48.8948C45.1494 48.8948 49.7743 44.2699 49.7743 38.5648C49.7743 32.8597 45.1494 28.2348 39.4443 28.2348C33.7391 28.2348 29.1143 32.8597 29.1143 38.5648C29.1143 44.2699 33.7391 48.8948 39.4443 48.8948Z" stroke="#4D2C5E" stroke-opacity="0.1" stroke-width="2" stroke-miterlimit="10" stroke-linecap="round" stroke-linejoin="round"/>
<path d="M57.4433 38.5647L53.9981 44.5868L52.1712 51.2912L45.4724 53.1125L39.4447 56.5634L33.4169 53.1125L26.7126 51.2912L24.8913 44.5868L21.4404 38.5647L24.8913 32.537L26.7126 25.8327L33.4169 24.0113L39.4447 20.5605L45.4724 24.0113L52.1712 25.8327L53.9981 32.537L57.4433 38.5647Z" stroke="#4D2C5E" stroke-opacity="0.1" stroke-width="2" stroke-miterlimit="10" stroke-linecap="round" stroke-linejoin="round"/>
<path d="M52.8363 58.8527C52.8363 56.1799 55.0072 54.009 57.6799 54.009C59.1234 54.009 60.4203 54.6462 61.3056 55.6499C64.9933 50.936 67.198 45.0097 67.198 38.5591C67.198 23.2276 54.7704 10.8 39.4389 10.8C24.1073 10.8 11.6797 23.2276 11.6797 38.5591C11.6797 53.8906 24.1073 66.3183 39.4389 66.3183C44.8294 66.3183 49.8534 64.7789 54.1106 62.1231C53.3269 61.2604 52.8363 60.1157 52.8363 58.8527Z" stroke="#4D2C5E" stroke-opacity="0.1" stroke-width="2" stroke-miterlimit="10" stroke-linecap="round" stroke-linejoin="round"/>
<path d="M39.4444 1C26.4924 1 15.0685 7.55777 8.31899 17.5326C9.73429 18.3784 10.6872 19.9234 10.6872 21.6939C10.6872 24.3666 8.51633 26.5375 5.84361 26.5375C5.18388 26.5375 4.558 26.4022 3.9885 26.1654C2.62958 30.0504 1.88525 34.2174 1.88525 38.5648C1.88525 59.3094 18.7054 76.1296 39.45 76.1296C60.1947 76.1296 77.0148 59.3094 77.0148 38.5648C77.0148 17.8201 60.189 1 39.4444 1Z" stroke="#4D2C5E" stroke-opacity="0.1" stroke-width="2" stroke-miterlimit="10" stroke-linecap="round" stroke-linejoin="round"/>
</svg>
