<svg width="94" height="117" viewBox="0 0 94 117" fill="none" xmlns="http://www.w3.org/2000/svg">
<path d="M78.5382 106.642L46.1036 114.13L44.6452 107.807C44.3103 106.342 45.2174 104.884 46.6829 104.542L73.814 98.2753C75.2794 97.9404 76.7378 98.8475 77.0797 100.313L78.5382 106.642Z" stroke="#4D2C5E" stroke-opacity="0.1" stroke-width="3" stroke-miterlimit="10" stroke-linecap="round"/>
<path d="M67.8771 72.6433C82.1735 61.1162 84.4185 40.1822 72.8914 25.8858C61.3643 11.5895 40.4302 9.3445 26.1339 20.8716C11.8375 32.3987 9.5926 53.3327 21.1197 67.6291C32.6468 81.9254 53.5808 84.1704 67.8771 72.6433Z" stroke="#4D2C5E" stroke-opacity="0.1" stroke-width="3" stroke-miterlimit="10"/>
<path d="M62.4814 76.1753L31.4704 17.3493L27.5975 10.2107C7.38178 20.8664 -0.364023 45.89 10.2916 66.1058C20.9473 86.3215 45.971 94.0673 66.1867 83.4116L62.3976 76.2241" stroke="#4D2C5E" stroke-opacity="0.1" stroke-width="3" stroke-miterlimit="10" stroke-linecap="round" stroke-linejoin="round"/>
<path d="M38.305 30.2394C48.4575 24.8865 55.1622 17.6536 53.2803 14.0841C51.3983 10.5147 41.6424 11.9605 31.4898 17.3134C21.3372 22.6662 14.6326 29.8992 16.5145 33.4686C18.3965 37.0381 28.1524 35.5923 38.305 30.2394Z" stroke="#4D2C5E" stroke-opacity="0.1" stroke-width="3" stroke-miterlimit="10"/>
<path d="M40.6885 79.4063C47.8551 80.7879 55.5241 79.8459 62.4814 76.1754C69.4386 72.5049 74.5536 66.713 77.4635 60.0209C70.2969 58.6393 62.6279 59.5813 55.6707 63.2518C48.7065 66.9224 43.5984 72.7142 40.6885 79.4063Z" stroke="#4D2C5E" stroke-opacity="0.1" stroke-width="3" stroke-miterlimit="10"/>
<path d="M62.5069 76.1393C70.6276 71.8577 70.2675 55.2178 61.7025 38.973C53.1375 22.7282 39.6111 13.0301 31.4904 17.3117C23.3697 21.5933 23.7299 38.2332 32.2949 54.478C40.8598 70.7228 54.3862 80.4209 62.5069 76.1393Z" stroke="#4D2C5E" stroke-opacity="0.1" stroke-width="3" stroke-miterlimit="10"/>
<path d="M17.563 62.2678L76.3889 31.2568" stroke="#4D2C5E" stroke-opacity="0.1" stroke-width="3" stroke-miterlimit="10"/>
<path d="M56.6338 87.0334L60.067 101.353" stroke="#4D2C5E" stroke-opacity="0.1" stroke-width="3" stroke-miterlimit="10"/>
<path d="M42.21 115.463L83.5556 105.547" stroke="#4D2C5E" stroke-opacity="0.1" stroke-width="3" stroke-miterlimit="10" stroke-linecap="round"/>
</svg>
