<svg width="16" height="16" viewBox="0 0 16 16" fill="none" xmlns="http://www.w3.org/2000/svg">
<g clip-path="url(#clip0_4_3331)">
<path d="M8.77243 0.829716L10.577 4.48629C10.7025 4.7406 10.9451 4.91682 11.2258 4.95754L15.2612 5.54394C15.9681 5.64674 16.2501 6.51516 15.7388 7.01345L12.8188 9.85967C12.6159 10.0576 12.5231 10.3429 12.5712 10.6223L13.2604 14.6413C13.3812 15.3452 12.6423 15.8819 12.0101 15.5498L8.40097 13.6524C8.14999 13.5206 7.84994 13.5206 7.59896 13.6524L3.98978 15.5498C3.35766 15.8822 2.61874 15.3452 2.73955 14.6413L3.42875 10.6223C3.47681 10.3429 3.38403 10.0576 3.18111 9.85967L0.261123 7.01345C-0.250182 6.51482 0.0318366 5.6464 0.73872 5.54394L4.7741 4.95754C5.05478 4.91682 5.29742 4.7406 5.42291 4.48629L7.2275 0.829716C7.54323 0.189248 8.45637 0.189248 8.77243 0.829716Z" fill="#F9D4AB"/>
</g>
<defs>
<clipPath id="clip0_4_3331">
<rect width="16" height="16" fill="white"/>
</clipPath>
</defs>
</svg>
